<svg width="1196" height="128" version="1.1" viewBox="0 0 316.45 33.867" xmlns="http://www.w3.org/2000/svg">
 <path d="m4.3043 14.663h17.028v4.0205h-17.028zm0.4257 14.71h19.298v4.1151h-24.028v-33.11h23.366v4.1151h-18.636zm33.289 4.3989q-3.1218 0-5.9598-0.8514-2.7907-0.8514-4.3989-2.0812l1.892-3.5948q1.6082 1.0879 3.9732 1.8447t4.8246 0.7568q3.1691 0 4.5408-0.8987 1.419-0.8987 1.419-2.5069 0-1.1825-0.8514-1.8447t-2.2704-0.9933q-1.3717-0.3311-3.0745-0.5676-1.7028-0.2838-3.4056-0.6622-1.7028-0.4257-3.1218-1.1352-1.419-0.7568-2.2704-2.0339-0.8514-1.3244-0.8514-3.5002 0-2.2704 1.2771-3.9732t3.5948-2.6015q2.365-0.946 5.5814-0.946 2.4596 0 4.9665 0.6149 2.5542 0.5676 4.1624 1.6555l-1.9393 3.5948q-1.7028-1.1352-3.5475-1.5609t-3.6894-0.4257q-2.9799 0-4.4462 0.9933-1.4663 0.946-1.4663 2.4596 0 1.2771 0.8514 1.9866 0.8987 0.6622 2.2704 1.0406 1.419 0.3784 3.1218 0.6622 1.7028 0.2365 3.4056 0.6622 1.7028 0.3784 3.0745 1.0879 1.419 0.7095 2.2704 1.9866 0.8987 1.2771 0.8987 3.4056 0 2.2704-1.3244 3.9259t-3.7367 2.6015q-2.4123 0.8987-5.7706 0.8987zm32.99 0.0946q-3.8313 0-7.0477-1.2298-3.2164-1.2771-5.5814-3.5475-2.365-2.3177-3.6894-5.3922t-1.3244-6.7639 1.3244-6.7639 3.6894-5.3449q2.4123-2.3177 5.6287-3.5475 3.2164-1.2771 7.095-1.2771 3.9259 0 7.1896 1.2771t5.5341 3.8313l-2.9326 2.9326q-2.0339-1.9866-4.4462-2.8853-2.365-0.946-5.1557-0.946-2.838 0-5.2976 0.946-2.4123 0.946-4.2097 2.6488-1.7501 1.7028-2.7434 4.0678-0.946 2.3177-0.946 5.0611 0 2.6961 0.946 5.0611 0.9933 2.3177 2.7434 4.0678 1.7974 1.7028 4.2097 2.6488t5.2503 0.946q2.6488 0 5.0611-0.8041 2.4596-0.8514 4.5408-2.7907l2.6961 3.5948q-2.4596 2.0812-5.7706 3.1691-3.2637 1.0406-6.7639 1.0406zm7.9937-4.8246v-12.298h4.5408v12.913zm12.014 4.4462v-25.069h4.3516v6.8112l-0.4257-1.7028q1.0406-2.6015 3.5002-3.9732t6.0544-1.3717v4.3989q-0.2838-0.0473-0.56759-0.0473-0.2365 0-0.473 0-3.6421 0-5.7706 2.1758t-2.1285 6.2909v12.487zm34.531 0v-5.2976l-0.2365-0.9933v-9.0343q0-2.8853-1.7028-4.4462-1.6555-1.6082-5.0138-1.6082-2.2231 0-4.3516 0.7568-2.1285 0.7095-3.5948 1.9393l-1.892-3.4056q1.9393-1.5609 4.6354-2.365 2.7434-0.8514 5.7233-0.8514 5.1557 0 7.9464 2.5069t2.7907 7.6626v15.136zm-8.2302 0.2838q-2.7907 0-4.9192-0.946-2.0812-0.946-3.2164-2.6015-1.1352-1.7028-1.1352-3.8313 0-2.0339 0.946-3.6894 0.99329-1.6555 3.1691-2.6488 2.2231-0.9933 5.9598-0.9933h7.9464v3.2637h-7.7572q-3.4056 0-4.5881 1.1352t-1.1825 2.7434q0 1.8447 1.4663 2.9799 1.4663 1.0879 4.0678 1.0879 2.5542 0 4.4462-1.1352 1.9393-1.1352 2.7907-3.311l0.89869 3.1218q-0.89869 2.2231-3.1691 3.5475-2.2704 1.2771-5.7233 1.2771zm49.841-25.589q3.0272 0 5.3449 1.1825t3.5948 3.5948q1.3244 2.4123 1.3244 6.1017v14.426h-4.5408v-13.906q0-3.6421-1.7028-5.4868t-4.7773-1.8447q-2.2704 0-3.9732 0.946t-2.6488 2.7907q-0.8987 1.8447-0.8987 4.5881v12.913h-4.5408v-13.906q0-3.6421-1.7028-5.4868-1.6555-1.8447-4.7773-1.8447-2.2231 0-3.9259 0.946t-2.6488 2.7907q-0.94599 1.8447-0.94599 4.5881v12.913h-4.5408v-25.069h4.3516v6.6693l-0.7095-1.7028q1.1825-2.4596 3.6421-3.8313t5.7233-1.3717q3.5948 0 6.1963 1.7974 2.6015 1.7501 3.4056 5.3449l-1.8447-0.7568q1.1352-2.8853 3.9732-4.6354t6.622-1.7501zm48.197 0q3.0272 0 5.3449 1.1825t3.5948 3.5948q1.3244 2.4123 1.3244 6.1017v14.426h-4.5408v-13.906q0-3.6421-1.7028-5.4868t-4.7773-1.8447q-2.2704 0-3.9732 0.946t-2.6488 2.7907q-0.8987 1.8447-0.8987 4.5881v12.913h-4.5408v-13.906q0-3.6421-1.7028-5.4868-1.6555-1.8447-4.7773-1.8447-2.2231 0-3.9259 0.946t-2.6488 2.7907-0.946 4.5881v12.913h-4.5408v-25.069h4.3516v6.6693l-0.70949-1.7028q1.1825-2.4596 3.6421-3.8313t5.7233-1.3717q3.5948 0 6.1963 1.7974 2.6015 1.7501 3.4056 5.3449l-1.8447-0.7568q1.1352-2.8853 3.9732-4.6354t6.622-1.7501zm32.2 25.305v-5.2976l-0.2365-0.9933v-9.0343q0-2.8853-1.7028-4.4462-1.6555-1.6082-5.0138-1.6082-2.2231 0-4.3516 0.7568-2.1285 0.7095-3.5948 1.9393l-1.892-3.4056q1.9393-1.5609 4.6354-2.365 2.7434-0.8514 5.7233-0.8514 5.1557 0 7.9464 2.5069t2.7907 7.6626v15.136zm-8.2302 0.2838q-2.7907 0-4.9192-0.946-2.0812-0.946-3.2164-2.6015-1.1352-1.7028-1.1352-3.8313 0-2.0339 0.946-3.6894 0.99329-1.6555 3.1691-2.6488 2.2231-0.9933 5.9598-0.9933h7.9464v3.2637h-7.7572q-3.4056 0-4.5881 1.1352t-1.1825 2.7434q0 1.8447 1.4663 2.9799 1.4663 1.0879 4.0678 1.0879 2.5542 0 4.4462-1.1352 1.9393-1.1352 2.7907-3.311l0.8987 3.1218q-0.8987 2.2231-3.1691 3.5475-2.2704 1.2771-5.7233 1.2771zm19.83-0.2838v-25.069h4.3516v6.8112l-0.4257-1.7028q1.0406-2.6015 3.5002-3.9732t6.0544-1.3717v4.3989q-0.2838-0.0473-0.5676-0.0473-0.2365 0-0.473 0-3.6421 0-5.7706 2.1758t-2.1285 6.2909v12.487z" fill="#fff" stroke-width="3.9416" aria-label="EsGrammar"/>
 <path d="m282.47 16.934v-16.934h33.867v33.867h-33.867zm9.3975 11.577c1.5951-0.41547 2.6245-1.222 3.2932-2.5804 0.69874-1.4194 0.72407-1.8252 0.72879-11.676l3e-3 -8.9594h-3.9409v8.861c0 5.9783-0.0441 9.0665-0.13544 9.4925-0.16308 0.76037-0.68401 1.4004-1.3073 1.6061-0.44331 0.1463-1.9653 0.09982-2.4059-0.07346-0.19883-0.07822-0.2155 0.04473-0.2155 1.5886 0 1.8519-0.0848 1.6565 0.80047 1.8437 0.6065 0.12825 2.5296 0.0659 3.1782-0.10305zm14.715-5.0608c1.9264-0.3962 3.5319-1.612 4.0929-3.0995 0.59564-1.5794 0.41022-3.5422-0.45383-4.8043-0.61712-0.90142-1.5245-1.5407-3.9692-2.7966-2.5289-1.2991-2.9694-1.6918-2.9694-2.6473 0-0.50279 0.0653-0.68538 0.36774-1.03 0.76633-0.87277 2.344-0.91782 4.6645-0.13321 0.75347 0.25475 1.3891 0.43969 1.4126 0.41097 0.0893-0.10932 1.1907-2.8212 1.1907-2.9318 0-0.063908-0.39339-0.26651-0.8742-0.45023-4.0009-1.5288-7.9778-1.059-9.6576 1.1409-0.68874 0.90202-0.95016 1.76-0.94841 3.1125 3e-3 1.3585 0.22955 2.0966 0.94973 3.0777 0.60632 0.82599 1.5871 1.4999 3.8272 2.63 2.6577 1.3407 3.2778 2.0498 2.8262 3.232-0.56636 1.483-2.854 1.6434-6.0368 0.42324-0.74507-0.28562-1.4517-0.54822-1.5702-0.58355-0.19856-0.05918-0.21552 0.08145-0.21552 1.7849v1.8492l0.89943 0.32804c1.8389 0.67069 4.5703 0.87645 6.4642 0.48695z" fill="#fff" stroke-width=".12315"/>
</svg>
